<?xml version="1.0" encoding="utf-8"?>
<!-- Generator: Adobe Illustrator 16.0.0, SVG Export Plug-In . SVG Version: 6.00 Build 0)  -->
<!DOCTYPE svg PUBLIC "-//W3C//DTD SVG 1.1//EN" "http://www.w3.org/Graphics/SVG/1.1/DTD/svg11.dtd">
<svg version="1.1" xmlns="http://www.w3.org/2000/svg" xmlns:xlink="http://www.w3.org/1999/xlink" x="0px" y="0px" width="750px"
	 height="500px" viewBox="0 0 750 500" enable-background="new 0 0 750 500" xml:space="preserve">
<g id="BACKGROUND" display="none">
	<rect display="inline" fill="#FFFFFF" width="750" height="500"/>
</g>
<g id="OBJECTS">
	<g>
		<path fill="#702232" d="M125.256,385.554h456.121c23.379-7.855,40.937-16.348,50.051-24.875
			c66.97-62.648,12.119-100.61-90.527-217.429c-102.646-116.818-96.761,2.075-244.994-28.829S183.887,215.324,164.097,241.447
			c-19.791,26.124-53.63,3.152-70.13,61.314C83.474,339.75,96.81,366.667,125.256,385.554z"/>
		<path fill="#727272" d="M665.038,436.578H94.341c-1.748,0-3.166-1.829-3.166-4.085l0,0c0-2.256,1.418-4.085,3.166-4.085h570.696
			c1.749,0,3.166,1.829,3.166,4.085l0,0C668.204,434.749,666.786,436.578,665.038,436.578z"/>
		<path fill="#C3083F" d="M94.109,408.746c-11.136,0-18.001-12.088-12.373-21.698c5.735-9.794,15.1-20.095,30.044-24.272
			c32.003-8.947,45.717-33.468,24.357-83.134c-21.36-49.665-2.288-93.181,40.175-100.479
			c89.977-15.466,45.461-102.656,137.79-114.821c89.813-11.834,66.773,62.536,136.558,62.536c69.785,0,109.72-41.48,153.667-2.878
			c52.737,46.323-4.056,120.562-6.461,162.565c-2.223,38.808,62.382,43.021,72.228,105.506c1.378,8.747-5.337,16.677-14.193,16.677
			H94.109z"/>
		<g>
			<g>
				<g>
					<path fill="#702232" d="M269.595,238.888c1.304-1.965,3.392-3.499,5.779-2.882c2.371,0.612,5.855,8.348,6.424,3.201
						c0.118-1.071-0.22-2.145-0.688-3.116c-2.706-5.61-3.623-12.935-1.389-18.857c2.229-5.905,7.191-5.588,11.265-2.008
						c1.142,1.004,5.404,6.486,5.683,2.393c0.139-3.048-3.335-5.666-4.973-7.559c-2.245-2.594-2.97-6.681-2.03-9.944
						c0.685-2.38,2.93-4.946,5.616-5.002c3.443-0.071,3.777,4.037,6.354,5.413c1.9,1.015,2.072-0.643,1.792-2.131
						c-1.15-6.115-9.538-12.168-5.115-18.743c0.81-1.204,2.343-2.275,3.86-1.929c2.653,0.606,4.089,4.895,6.77,4.126
						c2.818-0.808-2.456-8.832-3.14-10.051c-0.901-1.608-1.823-3.158-1.317-5.076c0.815-3.089,4.735-4.754,7.324-2.669
						c1.786,1.438,2.691,3.805,3.521,6.065c0.685-3.839,2.233-7.538,4.469-10.676c0.972-1.364,2.643-2.744,3.93-1.879
						c0.024,0.006,0.045,0.022,0.069,0.03c0,0-30.94,113.82-30.941,113.82c-3.489,1.426-8.724,0.152-12.266-0.487
						c-4.68-0.845-8.915-3.601-11.223-7.811c-3.583-6.537-2.876-14.699-0.972-21.635
						C268.633,240.625,269.044,239.718,269.595,238.888z"/>
					<path fill="#795FEE" d="M328.893,259.178c-0.103-2.407-1.429-4.804-3.55-5.41c-2.355-0.673-8.754,0.197-6.64-4.529
						c0.44-0.984,1.275-1.739,2.17-2.339c4.8-3.217,11.157-3.887,12.064-10.848c1.17-8.977-19.173-6.862-16.13-12.959
						c1.424-2.699,5.945-2.19,8.316-2.993c5.469-1.853,10.302-10.551,4.241-14.747c-2.978-2.061-4.992,0.614-8.188,0.485
						c-4.123-0.167,0.985-4.663,2.345-5.275c0.831-0.375,1.661-0.75,2.491-1.124c3.662-1.651,8.426-4.507,8.62-9.436
						c0.07-1.773-0.832-3.614-2.375-4.102c-2.596-0.82-6.005,2.152-7.928,0.131c-1.375-1.444,2.348-3.466,3.962-4.761
						s3.649-1.756,5.348-2.909c4.355-2.954,2.173-9.861-2.772-9.128c-2.269,0.336-4.248,1.919-6.107,3.448
						c1.353-3.658,1.89-7.631,1.55-11.469c-0.147-1.669-0.89-3.704-2.438-3.611c-0.024-0.007-0.049-0.003-0.074-0.009l-30.94,113.82
						c2.131,2.793,13.426,7.057,16.051,7.319c3.054,0.305,6.163-0.905,8.873-2.652c3.747-2.415,6.939-5.896,9.151-9.978
						C328.088,263.974,328.995,261.587,328.893,259.178z"/>
					<path fill="#702232" d="M328.893,259.178c-0.103-2.407-1.429-4.804-3.55-5.41c-2.355-0.673-8.754,0.197-6.64-4.529
						c0.44-0.984,1.275-1.739,2.17-2.339c4.8-3.217,11.157-3.887,12.064-10.848c1.17-8.977-19.173-6.862-16.13-12.959
						c1.424-2.699,5.945-2.19,8.316-2.993c5.469-1.853,10.302-10.551,4.241-14.747c-2.978-2.061-4.992,0.614-8.188,0.485
						c-4.123-0.167,0.985-4.663,2.345-5.275c0.831-0.375,1.661-0.75,2.491-1.124c3.662-1.651,8.426-4.507,8.62-9.436
						c0.07-1.773-0.832-3.614-2.375-4.102c-2.596-0.82-6.005,2.152-7.928,0.131c-1.375-1.444,2.348-3.466,3.962-4.761
						s3.649-1.756,5.348-2.909c4.355-2.954,2.173-9.861-2.772-9.128c-2.269,0.336-4.248,1.919-6.107,3.448
						c1.353-3.658,1.89-7.631,1.55-11.469c-0.147-1.669-0.89-3.704-2.438-3.611c-0.024-0.007-0.049-0.003-0.074-0.009l-30.94,113.82
						c2.131,2.793,13.426,7.057,16.051,7.319c3.054,0.305,6.163-0.905,8.873-2.652c3.747-2.415,6.939-5.896,9.151-9.978
						C328.088,263.974,328.995,261.587,328.893,259.178z"/>
				</g>
				<g>
					<path fill="#4E4E50" d="M278.427,226.276l-11.724,1.386l10.049-10.161c-1.507-4.832-3.013-9.664-4.52-14.496
						c-2.898-9.296-4.738-18.177-11.652-25.462l-10.93,4.491l8.759-8.474c-0.614-0.569-1.241-1.125-1.891-1.657
						c-1.244-1.017-2.537-1.95-3.863-2.821l-8.222,4.125l3.752-6.757c-0.339,0.449-14.012-13.276-31.341-2.091
						c-6.123,3.952-8.602,11.417-8.116,18.625c0.258,3.824,1.213,7.598,2.551,11.181c0.236,0.632,1.35,4.572,2.108,4.776
						l16.936,4.556l-14.99,2.273l0.589,3.438l10.023,1.183l-8.855,2.915c0,0,16.3,36.924,29.827,50.4
						c13.527,13.478,24.726,8.418,24.726,8.418C296.47,248.283,278.427,226.276,278.427,226.276z"/>
					<path fill="#FFFFFF" d="M273.176,271.764l0.189-0.149l-0.307-0.383c-3.917-4.869-7.599-10.203-11.056-15.921l5.072-18.719
						l-6.295,16.694c-3.278-5.604-6.324-11.594-9.138-17.924l7.147-30.259l-8.331,27.546c-0.204-0.478-0.419-0.941-0.621-1.423
						c-2.479-5.885-4.758-12.107-6.881-18.704l9.698-25.465l-10.569,22.733c-0.894-2.884-1.754-5.855-2.589-8.895l0.014-0.022
						l-0.024-0.013c-1.24-4.515-2.426-9.188-3.549-14.08l-0.952,0.208c0.933,4.494,1.92,8.816,2.958,12.999l-13.665-7.733
						l14.18,10.26l0.096-0.148c0.83,3.233,1.69,6.389,2.59,9.452l-0.01,0.021l0.018,0.008c1.083,3.683,2.219,7.25,3.411,10.709
						l-11.633-6.247l12.585,8.937c0.816,2.278,1.649,4.526,2.519,6.716c1.59,4.036,3.278,7.942,5.057,11.721l-12.899-5.999
						l14.211,8.683c2.8,5.71,5.813,11.107,9.031,16.163l-15.369-6.837l17.227,9.685c1.772,2.648,3.589,5.22,5.474,7.667l0.301,0.391
						l0.2-0.158c23.01,28.854,45.736,32.434,46.695,32.572l0.349-2.41C318.083,303.405,295.591,299.866,273.176,271.764z"/>
				</g>
				<g>
					<path fill="#950740" d="M199.896,312.762l18.015-12.74c-13.542-9.293-57.969-40.851-61.762-31.055
						C152.799,277.617,196.951,311.712,199.896,312.762z"/>
					<path fill="#950740" d="M164.082,223.721c-4.464,1.316-3.352,5.831-2.164,8.869c5.366,13.722,13.553,26.174,22.727,37.632
						c2.267,2.83,28.164,33.408,28.624,33.083l16.957-11.993C204.146,254.136,173.219,221.027,164.082,223.721z"/>
					<path fill="#795FEE" d="M240.231,284.234c-6.739-12.456-33.097-56.637-37.137-52.527c-8.437,8.582,18.234,52.78,23.885,61.9
						L240.231,284.234z"/>
					<path fill="#702232" d="M168.436,232.136c8.928,9.447,17.223,19.402,25.363,29.481c8.078,10.129,15.997,20.386,23.277,31.153
						c-8.932-9.443-17.227-19.398-25.363-29.48C183.641,253.157,175.722,242.9,168.436,232.136z"/>
					<path fill="#394F8E" d="M206.132,239.857c2.394,3.457,4.553,7.035,6.629,10.655c2.092,3.613,4.044,7.296,5.969,10.994
						c1.88,3.721,3.731,7.456,5.443,11.264c1.727,3.799,3.369,7.642,4.774,11.605c-2.397-3.456-4.557-7.033-6.633-10.653
						c-2.091-3.613-4.042-7.297-5.965-10.996c-1.877-3.722-3.728-7.458-5.439-11.265
						C209.184,247.661,207.541,243.82,206.132,239.857z"/>
					<path fill="#702232" d="M163.275,273.082c3.574,2.141,6.983,4.488,10.334,6.907c3.362,2.407,6.627,4.937,9.873,7.489
						c3.214,2.592,6.408,5.21,9.504,7.949c3.106,2.728,6.154,5.528,9.036,8.538c-3.576-2.139-6.987-4.484-10.338-6.905
						c-3.361-2.407-6.626-4.936-9.869-7.491c-3.213-2.595-6.406-5.213-9.502-7.953C169.207,278.889,166.159,276.089,163.275,273.082
						z"/>
				</g>
				<g>
					<path fill="#795FEE" d="M593.761,274.932l20.134,9.026c1.111-16.386,5.676-70.688-4.687-68.971
						C600.058,216.504,593.167,271.861,593.761,274.932z"/>
					<path fill="#950740" d="M652.197,198.798c-3.404-3.173-6.725,0.082-8.736,2.649c-9.083,11.601-15.638,24.983-20.835,38.711
						c-1.284,3.392-14.434,41.243-13.919,41.474l18.952,8.497C646.396,248.764,659.166,205.294,652.197,198.798z"/>
					<path fill="#950740" d="M638.842,295.143c7.295-12.14,31.922-57.308,26.328-58.695c-11.68-2.897-36.163,42.551-41.139,52.055
						L638.842,295.143z"/>
					<path fill="#702232" d="M647.168,206.829c-3.591,12.492-7.941,24.698-12.477,36.834c-4.611,12.107-9.413,24.142-14.979,35.889
						c3.586-12.494,7.936-24.7,12.477-36.834C636.806,230.613,641.609,218.577,647.168,206.829z"/>
					<path fill="#702232" d="M659.699,243.209c-1.758,3.82-3.74,7.499-5.8,11.128c-2.046,3.638-4.224,7.192-6.428,10.73
						c-2.246,3.513-4.521,7.006-6.927,10.417c-2.392,3.419-4.865,6.788-7.562,10.015c1.756-3.821,3.736-7.501,5.797-11.13
						c2.047-3.638,4.225-7.192,6.432-10.729c2.249-3.51,4.524-7.004,6.931-10.414C654.533,249.808,657.004,246.438,659.699,243.209z
						"/>
					<path fill="#394F8E" d="M609.292,223.216c-0.024,4.166-0.311,8.295-0.689,12.412c-0.361,4.119-0.878,8.216-1.424,12.309
						c-0.596,4.086-1.226,8.167-2.009,12.227c-0.767,4.063-1.628,8.11-2.752,12.123c0.021-4.167,0.306-8.297,0.685-12.413
						c0.362-4.118,0.879-8.215,1.429-12.308c0.6-4.085,1.229-8.167,2.013-12.226C607.311,231.277,608.17,227.228,609.292,223.216z"
						/>
				</g>
				<g>
					<g>
						<path fill="#950740" d="M361.682,206.106c0,0-4.245-22.654,12.102-33.663C373.784,172.444,378.779,188.755,361.682,206.106z"
							/>
						<path fill="#950740" d="M346.378,186.826c0,0,3.052,19.389,14.063,23.333l0.088,0.468
							C360.529,210.627,361.612,196.762,346.378,186.826z"/>
						<path fill="#950740" d="M359.333,211.143c0,0,19.579,1.394,25.901-8.445l0.476,0.02
							C385.71,202.717,372.445,198.538,359.333,211.143z"/>
						<path fill="#950740" d="M358.021,219.291c0,0,24.825,2.986,33.354-7.218l0.604,0.058
							C391.979,212.13,375.319,206.595,358.021,219.291z"/>
						<path fill="#950740" d="M357.132,226.304c0,0,18.771,10.03,29.586,2.632l0.462,0.229
							C387.181,229.166,375.957,219.025,357.132,226.304z"/>
						<path fill="#950740" d="M332.317,212.184c0,0,13.459,16.454,25.933,14.095l0.338,0.39
							C358.588,226.668,352.024,213.108,332.317,212.184z"/>
						<path fill="#950740" d="M335.69,196.255c0,0,8.504,21.651,23.255,22.457l0.224,0.518
							C359.169,219.229,357.182,202.614,335.69,196.255z"/>
					</g>
					<g>
						<path fill="#950740" d="M362.435,275.09l-1.643,0.487c-11.762-39.691,0.965-72.41,1.094-72.736l1.593,0.635
							C363.351,203.796,350.849,235.991,362.435,275.09z"/>
					</g>
				</g>
				<g>
					<path fill="#950740" d="M417.146,227.901l58.958-20.484c0.45-3.658-0.901-7.271-3.918-10.127
						c-0.751-0.711-1.606-1.375-2.561-1.981c0.256,0.107,0.512,0.214,0.768,0.321c-4.453-1.859-1.167-6.813,0.814-9.28
						c2.826-3.519,7.193-6.478,6.988-11.52c-0.213-5.271-4.266-5.678-8.259-4.104c-8.017,3.158-3.654-13.414-4.345-16.881
						c-1.095-5.494-3.521-12.701-9.475-14.582c-6.688-2.112-16.776,6.485-13.414,13.578c3.004,6.337,12.602,6.496,13.396,14.806
						c0.795,8.336-6.707,2.527-8.523-1.044c-2.282-4.485-3.173-9.002-8.22-11.369c-6.271-2.941-11.948-2.893-14.058-10.568
						c-1.807-6.578,0.342-13.98-2.661-20.286c-10.927-22.948-47.935,13.528-29.259,28.164c4.771,3.739,13.26,2.993,15.605,9.317
						c2.164,5.834-1.603,11.731,0.018,17.582c1.05,3.793,4.58,5.404,7.775,7.302c2.521,1.498,9.449,6.978,3.639,9.354
						c-6.167,2.52-11.406-8.417-14.882-11.51c-1.506-1.339-3.564-2.261-5.529-1.81c-6.776,1.555-6.72,10.969-6.091,16.334
						C395.569,213.247,405.025,223.516,417.146,227.901z"/>
					<path fill="#702232" d="M412.272,215.401c2.075,2.765,4.488,5.26,7.132,7.429c1.306,1.072,2.672,2.075,4.099,2.964l0.972-0.338
						c-1.455-1.168-2.855-2.397-4.199-3.684c-2.391-2.321-4.66-4.773-6.636-7.464c-1.999-2.664-3.854-5.461-5.403-8.444
						c-0.845-1.457-1.506-3.006-2.243-4.533c-0.733-1.53-1.276-3.138-2.004-4.703c0.354,1.667,0.685,3.366,1.204,5.006
						c0.559,1.625,1.064,3.288,1.827,4.84C408.364,209.67,410.223,212.623,412.272,215.401z"/>
					<path fill="#702232" d="M462.83,212.131l0.436-0.151c-2.545-3.585-4.455-7.574-5.015-11.86
						c-0.77-5.529,0.178-11.14,1.416-16.591l0.47-2.054l0.412-2.146l0.205-1.073l0.105-1.091c0.064-0.728,0.142-1.455,0.186-2.185
						c0.043-2.931-0.218-5.87-0.902-8.719c-1.408-5.676-4.195-10.993-8.091-15.17c1.685,2.31,3.108,4.791,4.215,7.404
						c1.135,2.594,2.006,5.293,2.549,8.043c0.5,2.759,0.708,5.547,0.578,8.318c-0.213,2.796-0.711,5.405-1.432,8.217
						c-0.611,2.792-1.146,5.619-1.405,8.508c-0.221,2.888-0.218,5.845,0.347,8.745c0.522,2.904,1.656,5.69,3.194,8.158
						C460.924,209.774,461.843,210.987,462.83,212.131z"/>
					<path fill="#702232" d="M424.762,168.292c2.503,3.284,5.109,6.454,7.623,9.686c2.541,3.208,5,6.472,7.273,9.856
						c2.278,3.377,4.332,6.908,5.974,10.62c1.637,3.708,2.743,7.676,2.897,11.717c0.073,2.017-0.098,4.039-0.514,6.015
						c-0.093,0.405-0.204,0.804-0.318,1.202l0.465-0.162c0.104-0.301,0.213-0.6,0.302-0.907c0.555-1.98,0.867-4.046,0.924-6.137
						c0.019-4.191-0.983-8.36-2.52-12.248c-3.115-7.818-8.095-14.593-13.136-21.074l-7.687-9.611
						c-1.265-1.604-2.489-3.23-3.619-4.906c-1.124-1.687-2.157-3.437-3.134-5.223c-1.923-3.592-3.48-7.391-4.762-11.287
						c-1.329-3.886-2.313-7.887-3.208-11.915c0.507,4.091,1.329,8.15,2.394,12.16c1.127,3.992,2.571,7.91,4.394,11.664
						C419.904,161.507,422.257,165.021,424.762,168.292z"/>
				</g>
			</g>
			<g>
				<g>
					<linearGradient id="SVGID_1_" gradientUnits="userSpaceOnUse" x1="142.437" y1="422.1934" x2="133.6243" y2="418.2615">
						<stop  offset="0" style="stop-color:#FFD1C1"/>
						<stop  offset="0.0221" style="stop-color:#FFCBBA"/>
						<stop  offset="0.108" style="stop-color:#FFB9A4"/>
						<stop  offset="0.2095" style="stop-color:#FFAB93"/>
						<stop  offset="0.335" style="stop-color:#FFA188"/>
						<stop  offset="0.5111" style="stop-color:#FF9C81"/>
						<stop  offset="1" style="stop-color:#FF9A7F"/>
					</linearGradient>
					<path fill="url(#SVGID_1_)" d="M139.527,424.902c0.148-0.741,0.077-1.555,0.057-2.329c-0.006-0.22,0.066-2.325,0.13-2.544
						c0.937-3.181,4.413-11.661,4.413-11.661l-8.632-3.034c0,0-1.291,7.924-3.998,11.927l0.011,0.004
						c-4.551,0.837-12.351,1.377-12.351,1.377s-8.161-1.347-8.626-1.308c-0.466,0.039-1.565-0.025-3.071,0.648
						c0,0-1.577,1.694,7.575,6.475c0,0,3.867,2.332,10.923,3.537c1.493,0.362,2.987,0.725,4.481,1.087
						c1.533,0.372,6.058,1.736,6.787,1.502c0.282-0.091,0.492-0.209,0.654-0.353C139.124,429.13,139.218,426.443,139.527,424.902z"
						/>
					<path fill="#1A1A1D" d="M139.583,422.573c-0.003-0.127,0.02-0.886,0.052-1.544c-0.392,0.067-0.777,0.127-1.15,0.18
						c-4.321,0.609-8.255-0.928-11.92-3.097c-0.069-0.041-0.132-0.084-0.195-0.128c-3.691,0.413-7.213,0.657-7.213,0.657
						s-8.161-1.347-8.626-1.308c-0.466,0.039-1.565-0.025-3.071,0.648c0,0-1.576,1.694,7.575,6.475c0,0,3.868,2.331,10.923,3.537
						c1.493,0.362,2.987,0.725,4.481,1.087c1.533,0.372,6.058,1.736,6.787,1.502c0.282-0.091,0.492-0.209,0.654-0.353
						c1.245-1.101,1.339-3.787,1.647-5.328C139.675,424.161,139.604,423.348,139.583,422.573z"/>
					<path fill="#1A1A1D" d="M150.566,377.858c-1.424,6.448-3.716,2.227-3.74,2.222c-4.017-0.865-2.918-7.135-4.044-3.183
						c-2.754,9.671-6.769,24.007-9.054,32.184l8.84,3.42c4.134-7.728,7.815-15.775,10.759-24.044
						c1.279-3.593-2.073-0.892-1.243-4.612c0.153-0.688,0.339-1.419,0.514-2.17C150.781,381.065,151.009,375.853,150.566,377.858z"
						/>
				</g>
				<path fill="#1A1A1D" d="M145.855,371.31c9.38,6.248,17.54,14.075,25.315,21.83c3.863,3.853,16.754,3.856,20.341,7.902
					c6.791,7.661,11.863,24.543-4.472,30.226c-1.341,0.467-2.788,0.804-4.331,0.811c-18.154,0.08-31.568-24.874-38.169-36.695
					c-2.866-5.133-6.039-11.445-8.561-16.671C136.692,369.84,145.855,371.31,145.855,371.31z"/>
				<g>
					
						<linearGradient id="SVGID_2_" gradientUnits="userSpaceOnUse" x1="-3228.9321" y1="662.0449" x2="-3228.9321" y2="637.1582" gradientTransform="matrix(0.9538 0.3002 -0.3002 0.9538 3390.2478 765.0157)">
						<stop  offset="0" style="stop-color:#FFD1C1"/>
						<stop  offset="0.3861" style="stop-color:#FFCFBF"/>
						<stop  offset="0.5877" style="stop-color:#FFC9B7"/>
						<stop  offset="0.7467" style="stop-color:#FFBDA9"/>
						<stop  offset="0.8825" style="stop-color:#FFAE97"/>
						<stop  offset="1" style="stop-color:#FF9A7F"/>
					</linearGradient>
					<path fill="url(#SVGID_2_)" d="M129.359,424.902c0.148-0.741,0.077-1.555,0.057-2.329c-0.006-0.22,0.065-2.325,0.13-2.544
						c0.937-3.181,4.412-11.661,4.412-11.661l-8.632-3.034c0,0-1.291,7.924-3.997,11.927l0.01,0.004
						c-4.551,0.837-12.351,1.377-12.351,1.377s-8.161-1.347-8.626-1.308c-0.465,0.039-1.564-0.025-3.07,0.648
						c0,0-1.577,1.694,7.574,6.475c0,0,3.868,2.332,10.923,3.537c1.494,0.362,2.988,0.725,4.481,1.087
						c1.533,0.372,6.059,1.736,6.787,1.502c0.281-0.091,0.492-0.209,0.654-0.353C128.956,429.13,129.049,426.443,129.359,424.902z"
						/>
					<path fill="#1A1A1D" d="M129.416,422.573c-0.004-0.127,0.019-0.886,0.051-1.544c-0.392,0.067-0.777,0.127-1.149,0.18
						c-4.321,0.609-8.255-0.928-11.921-3.097c-0.069-0.041-0.132-0.084-0.194-0.128c-3.691,0.413-7.213,0.657-7.213,0.657
						s-8.161-1.347-8.626-1.308c-0.465,0.039-1.564-0.025-3.07,0.648c0,0-1.577,1.694,7.574,6.475c0,0,3.868,2.331,10.923,3.537
						c1.494,0.362,2.987,0.725,4.481,1.087c1.533,0.372,6.059,1.736,6.787,1.502c0.281-0.091,0.492-0.209,0.654-0.353
						c1.244-1.101,1.338-3.787,1.647-5.328C129.507,424.161,129.436,423.348,129.416,422.573z"/>
					<path fill="#1A1A1D" d="M141.822,371.409c-0.024-0.005-0.048-0.011-0.072-0.016c-4.017-0.865-8.011,1.552-9.136,5.504
						c-2.755,9.671-6.769,24.007-9.054,32.184l8.839,3.42c4.135-7.728,7.815-15.775,10.759-24.044
						c1.279-3.593,3.019-9.577,3.85-13.299c0.153-0.687,0.339-1.419,0.514-2.17C145.704,372.38,143.829,371.842,141.822,371.409z"/>
				</g>
				
					<linearGradient id="SVGID_3_" gradientUnits="userSpaceOnUse" x1="-3140.103" y1="337.8203" x2="-3143.407" y2="335.9128" gradientTransform="matrix(0.9972 -0.0754 0.0754 0.9972 3270.2085 -221.2056)">
					<stop  offset="0" style="stop-color:#E2B691"/>
					<stop  offset="1" style="stop-color:#EF9367"/>
				</linearGradient>
				<polygon fill="url(#SVGID_3_)" points="162.264,348.007 163.989,353.225 160.981,354.218 				"/>
				
					<linearGradient id="SVGID_4_" gradientUnits="userSpaceOnUse" x1="-3122.209" y1="345.7588" x2="-3133.3801" y2="339.3091" gradientTransform="matrix(0.9972 -0.0754 0.0754 0.9972 3270.2085 -221.2056)">
					<stop  offset="0" style="stop-color:#FFD1C1"/>
					<stop  offset="0.3861" style="stop-color:#FFCFBF"/>
					<stop  offset="0.5877" style="stop-color:#FFC9B7"/>
					<stop  offset="0.7467" style="stop-color:#FFBDA9"/>
					<stop  offset="0.8825" style="stop-color:#FFAE97"/>
					<stop  offset="1" style="stop-color:#FF9A7F"/>
				</linearGradient>
				<path fill="url(#SVGID_4_)" d="M171.38,353.006c0.096,1.702,0.515,11.724,0.515,11.724c1.114,1.085,6.124,1.13,8.09-0.806
					c1.565-1.539,1.645-2.822,1.645-2.822l-1.716-14.552L171.38,353.006z"/>
				
					<linearGradient id="SVGID_5_" gradientUnits="userSpaceOnUse" x1="-3123.6509" y1="338.0967" x2="-3144.2605" y2="326.1978" gradientTransform="matrix(0.9972 -0.0754 0.0754 0.9972 3270.2085 -221.2056)">
					<stop  offset="0" style="stop-color:#FFD1C1"/>
					<stop  offset="0.3861" style="stop-color:#FFCFBF"/>
					<stop  offset="0.5877" style="stop-color:#FFC9B7"/>
					<stop  offset="0.7467" style="stop-color:#FFBDA9"/>
					<stop  offset="0.8825" style="stop-color:#FFAE97"/>
					<stop  offset="1" style="stop-color:#FF9A7F"/>
				</linearGradient>
				<path fill="url(#SVGID_5_)" d="M178.341,335.544l0.94,5.162l1.434,7.875l0.404,2.216c-4.411,8.991-12.725,10.535-15.659,7.866
					s-5.398-18.992-5.398-18.992L178.341,335.544z"/>
				<path fill="#0A1123" d="M180.471,357.34c-1.58,0.69-3.419,0.261-4.526-1.062c-2.217-2.651-5.82-6.796-7.211-7.448
					c-2.07-0.972-9.768-2.673-12.965-8.2c-1.996-3.45-2.796-8.229,3.339-9.651c6.236-1.446,5.281-0.702,10.65-1.988
					c5.619-1.346,8.007,0.428,9.749,4.029c0,0,5.995,0.154,5.313,8.366C184.139,349.598,182.411,356.586,180.471,357.34
					L180.471,357.34z"/>
				
					<linearGradient id="SVGID_6_" gradientUnits="userSpaceOnUse" x1="-3130.1431" y1="335.8145" x2="-3135.5435" y2="332.6965" gradientTransform="matrix(0.9972 -0.0754 0.0754 0.9972 3270.2085 -221.2056)">
					<stop  offset="0" style="stop-color:#FFD1C1"/>
					<stop  offset="0.3861" style="stop-color:#FFCFBF"/>
					<stop  offset="0.5877" style="stop-color:#FFC9B7"/>
					<stop  offset="0.7467" style="stop-color:#FFBDA9"/>
					<stop  offset="0.8825" style="stop-color:#FFAE97"/>
					<stop  offset="1" style="stop-color:#FF9A7F"/>
				</linearGradient>
				<path fill="url(#SVGID_6_)" d="M172.795,344.14c2.174,1.491,2.444,6.254-1.315,9.176l-2.211-7.684
					C169.39,344.411,171.365,343.158,172.795,344.14z"/>
				<path fill="#FFFFFF" d="M180.995,361.447c-5.653,0.664-14.542,2.323-16.18,8.841c-0.874,3.474-0.751,7.188-0.127,10.694
					c0.49,2.75,0.938,5.506,1.264,8.284c0.549,4.691,1.206,9.975-0.08,14.604l-2.203,10.581c0,0,23.762,20.876,36.519,5.842
					c0,0-1.94-47.836-7.919-56.605c-0.727-1.066-2.552-1.542-3.695-1.825C186.049,361.238,183.508,361.152,180.995,361.447z"/>
				<g>
					<g>
						
							<linearGradient id="SVGID_7_" gradientUnits="userSpaceOnUse" x1="-21.5693" y1="-255.3633" x2="-30.7951" y2="-221.0163" gradientTransform="matrix(0.9435 -0.3315 0.3315 0.9435 256.9163 608.1308)">
							<stop  offset="0" style="stop-color:#FFD1C1"/>
							<stop  offset="0.3861" style="stop-color:#FFCFBF"/>
							<stop  offset="0.5877" style="stop-color:#FFC9B7"/>
							<stop  offset="0.7467" style="stop-color:#FFBDA9"/>
							<stop  offset="0.8825" style="stop-color:#FFAE97"/>
							<stop  offset="1" style="stop-color:#FF9A7F"/>
						</linearGradient>
						<path fill="url(#SVGID_7_)" d="M134.521,375.661c0,0,0.61,4.841,3.448,8.087c2.837,3.246,6.077,4.531,8.737,7.961
							c2.09,2.695,22.889,22.647,25.006,15.374c0.277-0.953-0.066-1.968-0.443-2.886c-3.529-8.6-12.128-12.239-19.642-16.764
							l-2.852-1.906c0,0-1.236-4.9-4.246-7.601L134.521,375.661z"/>
						
							<linearGradient id="SVGID_8_" gradientUnits="userSpaceOnUse" x1="124.4141" y1="357.0576" x2="145.3926" y2="357.0576" gradientTransform="matrix(0.9972 -0.0754 0.0754 0.9972 -23.8123 27.8124)">
							<stop  offset="0" style="stop-color:#18154B"/>
							<stop  offset="0.1282" style="stop-color:#191650"/>
							<stop  offset="0.2838" style="stop-color:#1C1A5F"/>
							<stop  offset="0.4536" style="stop-color:#212078"/>
							<stop  offset="0.6336" style="stop-color:#27299A"/>
							<stop  offset="0.8194" style="stop-color:#2F34C5"/>
							<stop  offset="1" style="stop-color:#3941F7"/>
						</linearGradient>
						<path fill="url(#SVGID_8_)" d="M133.708,363.467l-6.501,7.356c-0.369,0.417-0.334,1.053,0.079,1.427l12.975,11.748
							c0.416,0.377,1.058,0.346,1.436-0.07l6.382-7.03c0.373-0.411,0.348-1.045-0.057-1.425l-12.855-12.073
							C134.749,363.007,134.088,363.037,133.708,363.467z"/>
						<g>
							
								<linearGradient id="SVGID_9_" gradientUnits="userSpaceOnUse" x1="126.0391" y1="356.3418" x2="142.3672" y2="356.3418" gradientTransform="matrix(0.9972 -0.0754 0.0754 0.9972 -23.8123 27.8124)">
								<stop  offset="0.0457" style="stop-color:#F8F2FA"/>
								<stop  offset="0.2204" style="stop-color:#F4F1FA"/>
								<stop  offset="0.3885" style="stop-color:#E9ECFA"/>
								<stop  offset="0.554" style="stop-color:#D5E5FB"/>
								<stop  offset="0.7179" style="stop-color:#BADAFC"/>
								<stop  offset="0.8791" style="stop-color:#97CDFD"/>
								<stop  offset="1" style="stop-color:#78C1FE"/>
							</linearGradient>
							<path fill="url(#SVGID_9_)" d="M128.577,371.463l10.83,9.84l5.806-6.395L134.5,364.761L128.577,371.463z"/>
						</g>
						
							<linearGradient id="SVGID_10_" gradientUnits="userSpaceOnUse" x1="-31.0181" y1="-246.1299" x2="-34.3614" y2="-258.638" gradientTransform="matrix(0.9435 -0.3315 0.3315 0.9435 256.9163 608.1308)">
							<stop  offset="0" style="stop-color:#FFD1C1"/>
							<stop  offset="0.3861" style="stop-color:#FFCFBF"/>
							<stop  offset="0.5877" style="stop-color:#FFC9B7"/>
							<stop  offset="0.7467" style="stop-color:#FFBDA9"/>
							<stop  offset="0.8825" style="stop-color:#FFAE97"/>
							<stop  offset="1" style="stop-color:#FF9A7F"/>
						</linearGradient>
						<path fill="url(#SVGID_10_)" d="M140.973,383.844c0,0,0.949-0.576,0.558-2.378c-0.391-1.802-1.219-6.058-1.219-6.058
							s0.012-1.519,0.614-1.185c0.602,0.334,1.902,1.273,2.405,3.913c0,0,0.522,2.271,1.107,2.854
							c0.584,0.582,2.111,2.167,2.387,4.677C146.826,385.667,142.544,387.11,140.973,383.844z"/>
					</g>
					<g>
						
							<linearGradient id="SVGID_11_" gradientUnits="userSpaceOnUse" x1="-4164.5317" y1="-2217.874" x2="-4168.3691" y2="-2183.1111" gradientTransform="matrix(0.9828 -0.1843 0.1843 0.9828 4669.9155 1785.786)">
							<stop  offset="0" style="stop-color:#FFD1C1"/>
							<stop  offset="0.3861" style="stop-color:#FFCFBF"/>
							<stop  offset="0.5877" style="stop-color:#FFC9B7"/>
							<stop  offset="0.7467" style="stop-color:#FFBDA9"/>
							<stop  offset="0.8825" style="stop-color:#FFAE97"/>
							<stop  offset="1" style="stop-color:#FF9A7F"/>
						</linearGradient>
						<path fill="url(#SVGID_11_)" d="M172.605,406.978c0.874-1.169,1.003-2.822,1.062-4.569c0.143-4.249,0.352-8.49,0.54-12.734
							c0.084-1.891,0.167-3.781,0.23-5.674c0.129-3.864,0.392-9.539-4.666-10.464c-1.151-0.211-2.644,0.639-3.36,1.426
							c-0.539,0.592-0.87,1.413-1.075,2.339c-0.436,1.964-0.307,4.399-0.401,6.105c-0.195,3.503-0.327,7.016-0.351,10.536
							c-0.015,2.263-0.002,4.528,0.119,6.797c0.1,1.868,0.037,4.228,0.895,5.974c0.915,1.864,3.172,2.145,4.849,1.667
							C171.45,408.094,172.135,407.605,172.605,406.978z"/>
					</g>
					<path fill="#FFFFFF" d="M177.327,385.164c-0.696-5.243-0.672-17.625-8.181-18.394c-8.308-0.851-5.988,18.62-5.988,18.62
						L177.327,385.164z"/>
				</g>
			</g>
			<g>
				<polygon fill="#4E4E50" points="440.888,429.352 412.328,263.007 210.384,296.488 233.394,429.352 				"/>
				<linearGradient id="SVGID_12_" gradientUnits="userSpaceOnUse" x1="401.1655" y1="267.8369" x2="473.9492" y2="269.6267">
					<stop  offset="0" style="stop-color:#B246FC"/>
					<stop  offset="0.2062" style="stop-color:#9F44F7"/>
					<stop  offset="0.6222" style="stop-color:#6E40EA"/>
					<stop  offset="1" style="stop-color:#3C3BDD"/>
				</linearGradient>
				<path fill="url(#SVGID_12_)" d="M407.572,234.322l6.128,36.963l-201.943,33.48l-6.128-36.963
					c-0.879-5.305,2.708-10.319,8.014-11.199l182.73-30.295C401.678,225.428,406.692,229.016,407.572,234.322z"/>
				<rect x="198.099" y="262.559" fill="#FFFFFF" width="204.699" height="166.793"/>
				<g>
					<rect x="263.489" y="293.499" fill="#4E4E50" width="18.038" height="18.038"/>
					<rect x="289.043" y="293.499" fill="#4E4E50" width="18.038" height="18.038"/>
					<rect x="314.597" y="293.499" fill="#4E4E50" width="18.039" height="18.038"/>
					<rect x="340.152" y="293.499" fill="#4E4E50" width="18.038" height="18.038"/>
					<rect x="263.489" y="318.552" fill="#4E4E50" width="18.038" height="18.038"/>
					<rect x="237.935" y="318.552" fill="#4E4E50" width="18.038" height="18.038"/>
					<rect x="289.043" y="318.552" fill="#4E4E50" width="18.038" height="18.038"/>
					<rect x="314.597" y="318.552" fill="#4E4E50" width="18.039" height="18.038"/>
					<rect x="340.152" y="318.552" fill="#4E4E50" width="18.038" height="18.038"/>
					<rect x="263.489" y="343.605" fill="#4E4E50" width="18.038" height="18.038"/>
					<rect x="237.935" y="343.605" fill="#4E4E50" width="18.038" height="18.038"/>
					<rect x="289.043" y="343.605" fill="#4E4E50" width="18.038" height="18.038"/>
					<rect x="314.597" y="343.605" fill="#4E4E50" width="18.039" height="18.038"/>
					<rect x="340.152" y="343.605" fill="#4E4E50" width="18.038" height="18.038"/>
					<rect x="263.489" y="367.404" fill="#4E4E50" width="18.038" height="18.038"/>
					<rect x="237.935" y="367.404" fill="#4E4E50" width="18.038" height="18.038"/>
					<rect x="289.043" y="367.404" fill="#4E4E50" width="18.038" height="18.038"/>
					<rect x="314.597" y="367.404" fill="#4E4E50" width="18.039" height="18.038"/>
					<rect x="340.152" y="367.404" fill="#4E4E50" width="18.038" height="18.038"/>
					<rect x="263.489" y="392.457" fill="#4E4E50" width="18.038" height="18.038"/>
					<rect x="237.935" y="392.457" fill="#4E4E50" width="18.038" height="18.038"/>
					<rect x="289.043" y="392.457" fill="#4E4E50" width="18.038" height="18.038"/>
					<rect x="314.597" y="392.457" fill="#4E4E50" width="18.039" height="18.038"/>
					<rect x="340.152" y="392.457" fill="#4E4E50" width="18.038" height="18.038"/>
				</g>
				<path fill="#950740" d="M402.798,233.481v37.468H198.099v-37.468c0-5.378,4.359-9.737,9.737-9.737h185.225
					C398.439,223.744,402.798,228.104,402.798,233.481z"/>
				<circle fill="#FFFFFF" cx="230.182" cy="249.555" r="12.686"/>
				<circle fill="#FFFFFF" cx="372.453" cy="249.555" r="12.686"/>
				<linearGradient id="SVGID_13_" gradientUnits="userSpaceOnUse" x1="196.5415" y1="205.9888" x2="236.5866" y2="254.0878">
					<stop  offset="0" style="stop-color:#F9FBFC"/>
					<stop  offset="0.1399" style="stop-color:#F1F5F8"/>
					<stop  offset="0.3515" style="stop-color:#DDE6ED"/>
					<stop  offset="0.6085" style="stop-color:#BBCDDB"/>
					<stop  offset="0.8987" style="stop-color:#8CABC2"/>
					<stop  offset="0.9973" style="stop-color:#7A9EB9"/>
				</linearGradient>
				<path fill="url(#SVGID_13_)" d="M220.312,223.744H208.19l17.652,28.161c1.509,2.408,4.676,3.131,7.072,1.614l0,0
					c2.397-1.517,3.117-4.698,1.607-7.106L220.312,223.744z"/>
				<linearGradient id="SVGID_14_" gradientUnits="userSpaceOnUse" x1="338.812" y1="205.9888" x2="378.8571" y2="254.0878">
					<stop  offset="0" style="stop-color:#F9FBFC"/>
					<stop  offset="0.1399" style="stop-color:#F1F5F8"/>
					<stop  offset="0.3515" style="stop-color:#DDE6ED"/>
					<stop  offset="0.6085" style="stop-color:#BBCDDB"/>
					<stop  offset="0.8987" style="stop-color:#8CABC2"/>
					<stop  offset="0.9973" style="stop-color:#7A9EB9"/>
				</linearGradient>
				<path fill="url(#SVGID_14_)" d="M362.583,223.744H350.46l17.652,28.161c1.509,2.408,4.676,3.131,7.073,1.614l0,0
					c2.397-1.517,3.116-4.698,1.607-7.106L362.583,223.744z"/>
				<path fill="#4E4E50" d="M230.183,254.313L230.183,254.313c-2.833,0-5.129-2.296-5.129-5.128V209.03
					c0-2.833,2.296-5.128,5.129-5.128l0,0c2.833,0,5.128,2.296,5.128,5.128v40.154C235.311,252.017,233.015,254.313,230.183,254.313
					z"/>
				<path fill="#4E4E50" d="M372.453,254.313L372.453,254.313c-2.833,0-5.129-2.296-5.129-5.128V209.03
					c0-2.833,2.296-5.128,5.129-5.128l0,0c2.833,0,5.128,2.296,5.128,5.128v40.154C377.582,252.017,375.286,254.313,372.453,254.313
					z"/>
			</g>
			<g>
				<circle fill="#C3083F" cx="516.489" cy="297.147" r="132.204"/>
				<g>
					<path fill="#702232" d="M516.489,429.352c-72.897,0-132.204-59.307-132.204-132.204s59.306-132.204,132.204-132.204
						s132.204,59.307,132.204,132.204S589.387,429.352,516.489,429.352z M516.489,167.92c-71.256,0-129.227,57.971-129.227,129.227
						c0,71.257,57.971,129.227,129.227,129.227c71.255,0,129.227-57.97,129.227-129.227
						C645.716,225.891,587.745,167.92,516.489,167.92z"/>
				</g>
				<circle fill="#950740" cx="516.489" cy="297.147" r="113.368"/>
				<linearGradient id="SVGID_15_" gradientUnits="userSpaceOnUse" x1="516.4893" y1="417.1855" x2="516.4893" y2="191.4661">
					<stop  offset="0" style="stop-color:#F9FBFC"/>
					<stop  offset="0.2923" style="stop-color:#F1F6FD"/>
					<stop  offset="0.7329" style="stop-color:#DDE6FE"/>
					<stop  offset="0.9973" style="stop-color:#CDDBFF"/>
				</linearGradient>
				<circle fill="url(#SVGID_15_)" cx="516.489" cy="297.147" r="105.31"/>
				<linearGradient id="SVGID_16_" gradientUnits="userSpaceOnUse" x1="511.2681" y1="339.6953" x2="511.6147" y2="298.7877">
					<stop  offset="0" style="stop-color:#F9FBFC"/>
					<stop  offset="0.1399" style="stop-color:#F1F5F8"/>
					<stop  offset="0.3515" style="stop-color:#DDE6ED"/>
					<stop  offset="0.6085" style="stop-color:#BBCDDB"/>
					<stop  offset="0.8987" style="stop-color:#8CABC2"/>
					<stop  offset="0.9973" style="stop-color:#7A9EB9"/>
				</linearGradient>
				<path fill="url(#SVGID_16_)" d="M555.721,235.583c-2.107-1.209-4.795-0.481-6.003,1.625l-28.901,50.353
					c-1.37-0.416-2.822-0.644-4.327-0.644c-3.872,0-7.388,1.489-10.037,3.911l-33.826-19.835c-2.094-1.229-4.79-0.527-6.018,1.569
					c-0.824,1.405-0.78,3.08-0.029,4.401c0.369,0.648,0.908,1.212,1.599,1.616l33.819,19.832c-0.255,1.094-0.405,2.229-0.405,3.4
					c0,8.226,6.669,14.895,14.896,14.895c8.226,0,14.895-6.669,14.895-14.895c0-3.521-1.228-6.749-3.269-9.298l29.23-50.929
					C558.555,239.479,557.829,236.792,555.721,235.583z"/>
				<linearGradient id="SVGID_17_" gradientUnits="userSpaceOnUse" x1="516.5347" y1="285.3906" x2="516.868" y2="200.0464">
					<stop  offset="0" style="stop-color:#F9FBFC"/>
					<stop  offset="0.1399" style="stop-color:#F1F5F8"/>
					<stop  offset="0.3515" style="stop-color:#DDE6ED"/>
					<stop  offset="0.6085" style="stop-color:#BBCDDB"/>
					<stop  offset="0.8987" style="stop-color:#8CABC2"/>
					<stop  offset="0.9973" style="stop-color:#7A9EB9"/>
				</linearGradient>
				<path fill="url(#SVGID_17_)" d="M516.49,206.733c55.653,0,101.192,43.18,105.018,97.862c0.173-2.463,0.292-4.94,0.292-7.447
					c0-58.161-47.149-105.31-105.309-105.31c-58.161,0-105.31,47.149-105.31,105.31c0,2.507,0.12,4.984,0.292,7.447
					C415.296,249.913,460.835,206.733,516.49,206.733z"/>
				<g>
					<path fill="#C3083F" d="M470.692,217.825c0.795-0.459,1.069-1.48,0.61-2.276l-6.017-10.422
						c-0.971,0.542-1.938,1.09-2.889,1.661l6.019,10.427C468.86,217.984,469.912,218.278,470.692,217.825z"/>
					<path fill="#795FEE" d="M563.114,376.245c-0.283,0-0.567,0.072-0.829,0.223c-0.796,0.459-1.069,1.48-0.611,2.276l6.018,10.423
						c0.972-0.542,1.938-1.09,2.89-1.661l-6.021-10.427C564.252,376.545,563.69,376.245,563.114,376.245z"/>
					<path fill="#C3083F" d="M595.811,251.35c0.442,0.769,1.5,1.059,2.275,0.61l10.423-6.017c-0.542-0.971-1.09-1.937-1.661-2.888
						l-10.428,6.021C595.625,249.534,595.352,250.555,595.811,251.35z"/>
					<path fill="#C3083F" d="M437.168,342.942c-0.309-0.533-0.871-0.833-1.447-0.833c-0.282,0-0.567,0.071-0.828,0.222l-10.424,6.02
						c0.542,0.971,1.09,1.938,1.661,2.89l10.428-6.021C437.354,344.761,437.627,343.738,437.168,342.942z"/>
					<path fill="#C3083F" d="M437.168,251.35c0.222-0.385,0.281-0.834,0.166-1.263c-0.115-0.43-0.391-0.79-0.775-1.011
						l-10.429-6.021c-0.571,0.951-1.12,1.917-1.661,2.888l10.423,6.017C435.668,252.408,436.724,252.118,437.168,251.35z"/>
					<path fill="#C3083F" d="M597.258,342.109c-0.577,0-1.139,0.3-1.448,0.834c-0.459,0.795-0.185,1.817,0.61,2.276l10.428,6.021
						c0.571-0.952,1.12-1.919,1.661-2.89l-10.423-6.018C597.826,342.182,597.54,342.109,597.258,342.109z"/>
					<path fill="#C3083F" d="M562.285,217.825c0.776,0.448,1.834,0.155,2.277-0.61l6.021-10.427c-0.952-0.571-1.918-1.12-2.89-1.661
						l-6.017,10.422C561.217,216.345,561.49,217.366,562.285,217.825z"/>
					<path fill="#C3083F" d="M470.692,376.468c-0.261-0.15-0.547-0.222-0.828-0.222c-0.577,0-1.14,0.299-1.448,0.833l-6.019,10.427
						c0.951,0.571,1.918,1.119,2.889,1.661l6.017-10.423C471.762,377.949,471.488,376.927,470.692,376.468z"/>
				</g>
				<linearGradient id="SVGID_18_" gradientUnits="userSpaceOnUse" x1="636.2578" y1="331.1182" x2="527.7479" y2="331.1182">
					<stop  offset="0" style="stop-color:#F9FBFC"/>
					<stop  offset="0.1399" style="stop-color:#F1F5F8"/>
					<stop  offset="0.3515" style="stop-color:#DDE6ED"/>
					<stop  offset="0.6085" style="stop-color:#BBCDDB"/>
					<stop  offset="0.8987" style="stop-color:#8CABC2"/>
					<stop  offset="0.9973" style="stop-color:#7A9EB9"/>
				</linearGradient>
				<path fill="url(#SVGID_18_)" d="M575.327,293.326c-1.681-1.815-3.678-3.235-5.672-4.627c-0.08-0.055-0.159-0.11-0.238-0.165
					c-0.612-0.427-1.236-0.834-1.887-1.184l-1.823-1.634l-0.377,0.314l0.103-3.9c0.063-0.019,0.117-0.047,0.177-0.068l-0.184,2.971
					c3.532-3.362,5.078-5.629,7.605-9.814c1.463-2.422,2.341-5.983-0.439-7.827c-0.653-0.434-2.066-1.158-2.066-1.158
					s-0.184-0.391-0.279-0.551c-0.391-0.653-0.96-1.198-1.56-1.657c-2.726-2.091-3.88-2.095-7.205-2.433
					c-10.845-1.104-7.748,7.098-7.748,7.098l0.283-0.667c-0.731,2.513-1.816,6.418-2.505,9.718l-1.118,1.275l0.837,0.171
					c-0.345,1.918-0.492,3.481-0.251,4.19c0.46,1.36,2.141,2.526,4.45,2.835l-0.041,0.786c-0.088,0.041-0.185,0.069-0.272,0.112
					c-1.68,0.833-3.361,1.666-5.042,2.498c-3.424-5.583-7.792-11.947-9.961-15.061c0.288-0.731,0.473-1.288,0.473-1.288l-0.48-0.875
					c-0.283,0.304-0.609,0.559-0.951,0.794c-0.166-0.236-0.285-0.405-0.344-0.488c3.733-7.361,9.249-24.196,9.249-24.196
					l2.431-2.337l2.936-1.764l1.871-1.124c0.568-0.246,1.176-0.424,1.797-0.462c0.307-0.019,0.642,0.061,0.94-0.028
					c0.225-0.067,0.43-0.263,0.43-0.498c0-0.17-0.104-0.324-0.22-0.449c-0.448-0.482-1.16-0.703-1.802-0.56
					c-0.244,0.054-0.474,0.156-0.709,0.24s-0.482,0.152-0.732,0.135s-0.503-0.132-0.634-0.345c-0.178-0.29-0.044-0.506,0.165-0.692
					c0.255-0.228,0.448-0.542,0.656-0.815c0.561-0.738,1.122-1.477,1.683-2.215c0.245-0.321,0.525-0.611,0.42-1.051
					c-0.108-0.456-0.613-0.887-1.098-0.792c-0.518,0.102-0.958,0.438-1.444,0.625c-0.149,0.058-1.27,0.641-1.398,0.537
					c-0.572-0.464-0.852-1.058-1.575-0.77c-0.457,0.182-0.906,0.452-1.414,0.277c-0.695-0.24-0.948-0.967-1.717-1.023
					c-0.577-0.042-1.519,0.095-1.808,0.702c-0.007,0.015-3.806,9.666-3.806,9.666c-0.498,1.267-5.419,9.79-6.206,10.852
					c-0.687,0.929-7.995,11.293-7.583,17.247c-0.976,0.126-1.627,0.21-1.628,0.21c-0.042,0.018-0.058,0.083-0.07,0.155
					c-0.083-0.018-0.136-0.029-0.136-0.029l-0.021,0.551c0,0-0.219,3.654,0.078,3.823c0.546,0.311,1.131,0.526,1.732,0.679
					c1.371,3.309,3.122,7.067,3.353,7.568c1.039,2.262,6.421,10.795,11.777,15.591c-0.072,4.371-0.125,8.743-0.114,13.113
					c0.001,0.479,0.013,0.956,0.028,1.432c-8.754-1.123-20.759-1.7-20.759-1.7l-2.898-1.725l-2.48-2.361l-1.58-1.505
					c-0.388-0.483-0.721-1.021-0.922-1.61c-0.1-0.291-0.112-0.636-0.277-0.898c-0.125-0.2-0.367-0.346-0.594-0.283
					c-0.165,0.045-0.285,0.186-0.375,0.331c-0.346,0.561-0.37,1.305-0.062,1.887c0.117,0.221,0.276,0.415,0.42,0.62
					c0.144,0.204,0.275,0.425,0.325,0.67c0.05,0.245,0.006,0.52-0.164,0.702c-0.232,0.248-0.477,0.178-0.712,0.025
					c-0.287-0.186-0.642-0.288-0.96-0.416c-0.861-0.345-1.722-0.69-2.583-1.035c-0.375-0.15-0.729-0.344-1.125-0.125
					c-0.411,0.226-0.692,0.825-0.472,1.268c0.236,0.473,0.676,0.808,0.986,1.227c0.095,0.129,0.956,1.055,0.889,1.206
					c-0.295,0.675-0.794,1.102-0.324,1.723c0.297,0.392,0.677,0.753,0.643,1.29c-0.047,0.733-0.681,1.17-0.531,1.927
					c0.113,0.567,0.495,1.439,1.157,1.557c0.016,0.003,10.329,1.104,10.329,1.104c1.354,0.145,10.877,2.627,12.11,3.104
					c0.629,0.242,4.948,1.804,9.557,2.673c-0.785,3.75-2.078,7.723-1.316,11.493c0.367,1.819,1.528,2.558,2.98,3.031
					c-0.587,3.505-0.846,7.096-0.909,9.88c-0.136,6.129-0.987,11.404-0.263,16.836c-0.11,0.688-0.169,1.541-0.142,2.613
					c0.101,4.021,1.577,28.979,2.356,41.979h-0.042c0,0,0.026,0.15,0.066,0.404c0.269,4.486,0.449,7.46,0.449,7.46l0.125,0.013
					c-0.023,1.481-0.153,2.951-0.479,4.186l0.011,0.001c-1.299,0.741-2.941,1.567-4.55,2.339c-0.021,0.01-0.04,0.02-0.06,0.028
					c4.379-0.858,8.676-1.941,12.889-3.221c-0.014-0.717-0.011-1.584,0.005-2.521l0.21,0.022c0,0,3.305-15.922,3.189-31.968
					c1.456,8.869,3.255,19.648,4.452,26.792l-0.042,0.004c0,0,0.042,0.147,0.108,0.396c0.28,1.672,0.525,3.13,0.721,4.299
					c3.113-1.188,6.174-2.477,9.169-3.889c0.438-9.664,0.5-27.446-3.786-40.374c0.183-0.72,0.327-1.442,0.453-2.126
					c0.489-2.669,1.069-5.33,1.562-8.004c0.844-4.571,1.497-9.177,2.37-13.741c0.554-2.896,1-5.942,0.986-8.952
					c2.313-0.941,2.721-3.201,2.354-5.879c-0.688-5.028-1.932-9.684-1.302-14.801c0.635-5.165,1.227-10.337,1.964-15.487
					c0.313-2.187,0.904-4.432,1.105-6.621C578.744,297.85,577.261,295.414,575.327,293.326z"/>
				<g>
					<g>
						<g>
							<g>
								<g>
									<path fill="#702232" d="M535.047,269.816c-0.837,0.36,4.521,11.845,4.935,12.747c1.82,3.964,16.969,27.192,21.958,15.806
										c0.767-1.75,0.47-3.58-0.123-5.066c-2.669-6.687-15.623-24.921-15.623-24.921S535.048,269.816,535.047,269.816z"/>
								</g>
								
									<linearGradient id="SVGID_19_" gradientUnits="userSpaceOnUse" x1="288.8652" y1="293.166" x2="298.9868" y2="293.166" gradientTransform="matrix(-0.3294 0.9442 -0.9442 -0.3294 914.4421 89.1611)">
									<stop  offset="0" style="stop-color:#F9FBFC"/>
									<stop  offset="0.3069" style="stop-color:#F0F5FD"/>
									<stop  offset="0.8031" style="stop-color:#D8E3FE"/>
									<stop  offset="0.9973" style="stop-color:#CDDBFF"/>
								</linearGradient>
								<polygon fill="url(#SVGID_19_)" points="535.769,268.338 539.014,265.257 539.956,264.762 540.867,264.775 544.221,266.463 
									547.538,268.143 545.225,273.136 540.413,275.337 535.901,273.763 534.841,269.942 								"/>
							</g>
						</g>
						<linearGradient id="SVGID_20_" gradientUnits="userSpaceOnUse" x1="563.2319" y1="257.8125" x2="548.4116" y2="250.9223">
							<stop  offset="0" style="stop-color:#F4F3F1"/>
							<stop  offset="1" style="stop-color:#FFB2BC"/>
						</linearGradient>
						<path fill="url(#SVGID_20_)" d="M556.076,231.141c0.77,0.056,1.022,0.783,1.717,1.023c0.509,0.176,0.958-0.094,1.414-0.277
							c0.724-0.289,1.003,0.306,1.575,0.77c0.128,0.104,1.249-0.479,1.398-0.537c0.486-0.188,0.926-0.523,1.443-0.625
							c0.485-0.095,0.989,0.336,1.098,0.792c0.105,0.44-0.175,0.73-0.419,1.051c-0.562,0.739-1.123,1.477-1.684,2.216
							c-0.208,0.273-0.401,0.587-0.656,0.815c-0.208,0.186-0.342,0.403-0.164,0.692c0.131,0.213,0.384,0.328,0.634,0.345
							c0.249,0.017,0.497-0.051,0.731-0.135c0.235-0.084,0.466-0.186,0.71-0.24c0.643-0.143,1.354,0.078,1.802,0.56
							c0.117,0.125,0.22,0.278,0.22,0.449c0,0.235-0.205,0.431-0.43,0.498c-0.298,0.089-0.633,0.009-0.94,0.028
							c-0.621,0.038-1.228,0.216-1.797,0.462l-1.871,1.124l-2.935,1.764l-2.432,2.336c0,0-8.25,25.186-11.4,27.42
							c-1.337,0.948-3.575,2.26-5.195,1.487c-6.991-3.334,4.49-19.624,5.36-20.799c0.787-1.063,5.708-9.585,6.206-10.853
							c0,0,3.798-9.651,3.805-9.666C554.557,231.235,555.499,231.099,556.076,231.141z"/>
						<linearGradient id="SVGID_21_" gradientUnits="userSpaceOnUse" x1="547.4204" y1="287.6504" x2="547.2719" y2="246.9387">
							<stop  offset="0" style="stop-color:#F4F3F1"/>
							<stop  offset="1" style="stop-color:#FFB2BC"/>
						</linearGradient>
						<path fill="url(#SVGID_21_)" d="M555.721,234.402c-0.707-0.406-1.479-0.576-2.238-0.567c-1.113,2.829-3.02,7.673-3.02,7.673
							c-0.499,1.268-5.419,9.79-6.206,10.853c-0.858,1.159-12.027,17.014-5.623,20.646l18.712-32.602
							C558.555,238.299,557.829,235.611,555.721,234.402z"/>
					</g>
					
						<linearGradient id="SVGID_22_" gradientUnits="userSpaceOnUse" x1="289.8472" y1="292.7949" x2="299.9478" y2="292.7949" gradientTransform="matrix(-0.3294 0.9442 -0.9442 -0.3294 914.4421 89.1611)">
						<stop  offset="0" style="stop-color:#F9FBFC"/>
						<stop  offset="0.3069" style="stop-color:#F0F5FD"/>
						<stop  offset="0.8031" style="stop-color:#D8E3FE"/>
						<stop  offset="0.9973" style="stop-color:#CDDBFF"/>
					</linearGradient>
					<path fill="url(#SVGID_22_)" d="M534.841,269.942c0,0,9.057,2.096,12.697-1.8l0.48,0.875c0,0-1.341,4.058-2.47,4.705
						c-1.041,0.596-6.771,2.801-10.651,0.594c-0.296-0.168-0.078-3.822-0.078-3.822L534.841,269.942z"/>
				</g>
				<g>
					<path fill="#C3083F" d="M515.767,300.528c-2.107-1.209-2.834-3.896-1.625-6.004l35.576-61.982
						c1.209-2.106,3.896-2.834,6.003-1.625c2.107,1.209,2.834,3.897,1.625,6.003l-35.575,61.982
						C520.562,301.01,517.875,301.737,515.767,300.528z"/>
				</g>
				<g>
					<g>
						<path fill="#C3083F" d="M466.581,272.299c-0.751-1.321-0.795-2.996,0.029-4.401c1.229-2.096,3.923-2.798,6.018-1.569
							l46.086,27.025c2.094,1.232,2.798,3.925,1.568,6.018c-1.229,2.097-3.923,2.798-6.018,1.569l-46.085-27.025
							C467.489,273.51,466.95,272.947,466.581,272.299z"/>
					</g>
				</g>
				<circle fill="#C3083F" cx="516.489" cy="297.147" r="14.895"/>
				<circle fill="#FFFFFF" cx="516.49" cy="297.147" r="10.823"/>
				<g>
					<g>
						<g>
							<g>
								<g>
									<path fill="#795FEE" d="M516.49,210.986c-1.619,0-2.932-1.313-2.932-2.932v-17.132c0-1.619,1.313-2.932,2.932-2.932
										s2.932,1.313,2.932,2.932v17.132C519.421,209.673,518.109,210.986,516.49,210.986z"/>
									<path fill="#C3083F" d="M516.49,212.389c-2.39,0-4.335-1.945-4.335-4.335v-17.132c0-2.39,1.945-4.334,4.335-4.334
										c2.39,0,4.334,1.944,4.334,4.334v17.132C520.824,210.444,518.88,212.389,516.49,212.389z"/>
								</g>
							</g>
							<g>
								<g>
									<path fill="#795FEE" d="M516.49,406.305c-1.619,0-2.932-1.313-2.932-2.933V386.24c0-1.619,1.313-2.932,2.932-2.932
										s2.932,1.313,2.932,2.932v17.132C519.421,404.991,518.109,406.305,516.49,406.305z"/>
									<path fill="#C3083F" d="M516.49,407.707c-2.39,0-4.335-1.944-4.335-4.335v-17.131c0-2.392,1.945-4.335,4.335-4.335
										c2.39,0,4.334,1.943,4.334,4.335v17.131C520.824,405.763,518.88,407.707,516.49,407.707z"/>
								</g>
							</g>
						</g>
						<g>
							<g>
								<g>
									<path fill="#795FEE" d="M622.715,300.079h-17.132c-1.619,0-2.932-1.313-2.932-2.932c0-1.62,1.313-2.933,2.932-2.933h17.132
										c1.619,0,2.932,1.313,2.932,2.933C625.647,298.766,624.334,300.079,622.715,300.079z"/>
									<path fill="#C3083F" d="M622.715,301.481h-17.132c-2.39,0-4.335-1.944-4.335-4.334c0-2.391,1.945-4.335,4.335-4.335h17.132
										c2.39,0,4.335,1.944,4.335,4.335C627.05,299.537,625.105,301.481,622.715,301.481z"/>
								</g>
							</g>
							<g>
								<g>
									<path fill="#795FEE" d="M427.396,300.079h-17.132c-1.619,0-2.932-1.313-2.932-2.932c0-1.62,1.313-2.933,2.932-2.933h17.132
										c1.619,0,2.932,1.313,2.932,2.933C430.328,298.766,429.015,300.079,427.396,300.079z"/>
									<path fill="#C3083F" d="M427.396,301.481h-17.131c-2.39,0-4.335-1.944-4.335-4.334c0-2.391,1.945-4.335,4.335-4.335h17.131
										c2.391,0,4.336,1.944,4.336,4.335C431.732,299.537,429.787,301.481,427.396,301.481z"/>
								</g>
							</g>
						</g>
					</g>
				</g>
				<circle fill="#C3083F" cx="516.49" cy="297.147" r="5.751"/>
			</g>
			<g>
				<g>
					<g>
						
							<linearGradient id="SVGID_23_" gradientUnits="userSpaceOnUse" x1="9148.627" y1="414.8467" x2="9124.4395" y2="428.8113" gradientTransform="matrix(-1 0 0 1 9689.3076 0)">
							<stop  offset="0" style="stop-color:#F4F3F1"/>
							<stop  offset="1" style="stop-color:#FFB2BC"/>
						</linearGradient>
						<path fill="url(#SVGID_23_)" d="M563.897,424.808c-0.101-0.718-0.423-1.432-0.687-2.126c-0.075-0.196-0.678-2.125-0.689-2.344
							c-0.16-3.176,0.298-11.953,0.298-11.953l-8.774-0.011c0,0,1.343,7.582,0.162,12.063h0.011
							c-3.854,2.2-10.742,5.161-10.742,5.161s-7.813,1.367-8.223,1.55c-0.409,0.183-1.424,0.474-2.574,1.561
							c0,0-0.89,2.034,8.908,3.459c0,0,4.24,0.885,11.007-0.261c1.467-0.145,2.934-0.29,4.401-0.436
							c1.506-0.149,6.033-0.349,6.619-0.792c0.226-0.171,0.379-0.345,0.48-0.526C564.872,428.762,564.106,426.301,563.897,424.808z"
							/>
						<path fill="#1A1A1D" d="M563.21,422.682c-0.044-0.114-0.264-0.807-0.443-1.414c-0.333,0.186-0.663,0.362-0.984,0.527
							c-3.718,1.921-7.766,1.776-11.771,0.975c-0.075-0.015-0.146-0.034-0.217-0.054c-3.21,1.544-6.32,2.882-6.32,2.882
							s-7.813,1.367-8.223,1.55c-0.409,0.183-1.424,0.474-2.574,1.561c0,0-0.89,2.034,8.908,3.459c0,0,4.24,0.885,11.007-0.261
							c1.467-0.145,2.934-0.29,4.401-0.436c1.506-0.149,6.033-0.349,6.619-0.792c0.226-0.171,0.379-0.345,0.48-0.526
							c0.777-1.391,0.011-3.852-0.198-5.345C563.796,424.09,563.474,423.376,563.21,422.682z"/>
					</g>
					<g>
						<g>
							<path fill="#1A1A1D" d="M553.653,361.009c0,0-2.06-0.093-1.923,5.386s2.83,49.844,2.83,49.844l8.152,0.847
								c0,0,6.721-32.338,0.673-51.287C563.385,365.798,561.102,357.373,553.653,361.009z"/>
						</g>
						<path fill="#1A1A1D" d="M569.231,324.866c-0.47-0.327-0.974-0.606-1.514-0.829c-2.263-0.934-4.723-0.037-7.164,0.142
							c-6.539,0.479-8.242,14.873-8.418,22.767c-0.188,8.463-1.755,15.299,1.372,23.166c0.923,2.322,2.495,4.761,4.961,5.161
							c1.901,0.309,3.82-0.75,5.044-2.237c1.224-1.488,1.878-3.352,2.472-5.184c2.52-7.775,4.363-15.75,6.289-23.692
							c0.887-3.658,1.8-7.406,1.381-11.147C573.3,329.851,571.791,326.648,569.231,324.866z"/>
					</g>
				</g>
				<g>
					<g>
						
							<linearGradient id="SVGID_24_" gradientUnits="userSpaceOnUse" x1="9129.6719" y1="419.8174" x2="9106.9375" y2="432.9429" gradientTransform="matrix(-1 0 0 1 9689.3076 0)">
							<stop  offset="0" style="stop-color:#F4F3F1"/>
							<stop  offset="1" style="stop-color:#FFB2BC"/>
						</linearGradient>
						<path fill="url(#SVGID_24_)" d="M581.849,427.211c-0.176-0.703-0.572-1.379-0.908-2.041c-0.096-0.188-0.899-2.042-0.933-2.258
							c-0.496-3.141-0.97-11.917-0.97-11.917l-8.727,0.918c0,0,2.139,7.397,1.439,11.978l0.011-0.001
							c-3.6,2.596-10.136,6.27-10.136,6.27s-7.625,2.188-8.012,2.412c-0.388,0.226-1.366,0.622-2.395,1.824
							c0,0-0.67,2.117,9.225,2.496c0,0,4.31,0.432,10.918-1.425c1.443-0.3,2.887-0.6,4.33-0.899
							c1.481-0.308,5.962-0.985,6.498-1.488c0.207-0.194,0.34-0.383,0.421-0.574C583.237,431.04,582.214,428.674,581.849,427.211z"
							/>
						<path fill="#1A1A1D" d="M580.941,425.17c-0.056-0.108-0.348-0.774-0.591-1.359c-0.311,0.221-0.621,0.43-0.922,0.629
							c-3.494,2.304-7.534,2.589-11.602,2.216c-0.077-0.007-0.149-0.019-0.221-0.03c-3.028,1.875-5.979,3.534-5.979,3.534
							s-7.625,2.188-8.012,2.412c-0.388,0.226-1.366,0.622-2.395,1.824c0,0-0.67,2.117,9.225,2.496c0,0,4.31,0.431,10.918-1.425
							c1.443-0.3,2.887-0.6,4.33-0.899c1.481-0.308,5.962-0.985,6.498-1.488c0.207-0.194,0.34-0.383,0.421-0.574
							c0.626-1.465-0.396-3.831-0.762-5.294C581.673,426.508,581.277,425.832,580.941,425.17z"/>
					</g>
					<g>
						<g>
							<path fill="#1A1A1D" d="M564.907,364.855c0,0-2.059,0.126-1.343,5.56c0.717,5.434,8.093,49.264,8.093,49.264l8.196-0.021
								c0,0,3.259-32.867-4.762-51.069C575.091,368.588,571.928,360.452,564.907,364.855z"/>
						</g>
						<path fill="#1A1A1D" d="M576.514,327.629c-3.031-1.827-6.648-1.442-9.563,0.438c-3.898,2.515-6.229,6.865-6.667,11.456
							c-0.592,6.182-0.147,13.008,0.646,19.151c0.427,3.303,1.167,6.782,2.161,10.05c0.84,2.76,1.31,6.441,3.888,8.285
							c1.887,1.351,5.19,1.466,7.046-0.07c1.932-1.599,2.524-4.383,2.952-6.72c0.488-2.669,1.068-5.33,1.562-8.004
							c0.843-4.571,1.497-9.177,2.37-13.741c0.84-4.394,1.457-9.135,0.543-13.568C580.795,331.723,578.942,329.093,576.514,327.629z
							"/>
					</g>
				</g>
				<path fill="#702232" d="M584.248,333.643c-0.688-5.028-1.932-9.685-1.302-14.801c0.635-5.165,1.227-10.337,1.964-15.487
					c0.313-2.187,0.904-4.432,1.104-6.621c0.27-2.938-1.213-5.375-3.147-7.462c-1.682-1.815-3.679-3.235-5.673-4.627
					c-0.079-0.055-0.158-0.11-0.238-0.165c-0.769-0.536-1.542-1.075-2.386-1.458c-3.542-1.609-8.416-1.698-11.912,0.035
					c-2.236,1.108-4.472,2.216-6.708,3.324c-2.376,1.177-3.931,3.74-3.99,6.579c-0.129,6.165-0.221,12.332-0.206,18.497
					c0.008,3.225,0.434,6.354-0.089,9.564c-0.68,4.184-2.469,8.729-1.604,13.013c0.426,2.109,1.917,2.768,3.693,3.242
					c4.591,1.225,9.141,2.771,13.828,3.544c4.572,0.754,9.272,0.153,13.751-1.084C584.168,338.954,584.644,336.531,584.248,333.643z
					"/>
				<path fill="#702232" d="M586.015,296.733c0.041-0.452,0.028-0.889-0.008-1.317c-0.581-1.119-1.758-1.906-3.741-2.194
					c-1.891-0.274-3.577,0.497-4.852,1.463c-4.602,3.486-14.601,15.312-18.385,19.863c-0.782-0.083-1.367-0.113-1.367-0.113
					l-0.716,0.695l-0.204,1.006c-1.426-0.261-3.087-0.5-4.86-0.718c0.07,1.863,0.092,3.72-0.215,5.604
					c-0.205,1.261-0.511,2.554-0.814,3.863c2.748,0.597,5.717,1.011,8.155,0.786l1.25,0.754l1.794,0.47l0.536-0.126
					c0,0,3.582-0.759,3.666-1.09c0.155-0.609,0.208-1.23,0.195-1.851c2.826-2.2,5.985-4.886,6.407-5.24
					c1.965-1.653,9.139-9.532,12.199-16.099C585.38,300.578,585.84,298.636,586.015,296.733z"/>
				
					<linearGradient id="SVGID_25_" gradientUnits="userSpaceOnUse" x1="269.8633" y1="297.7852" x2="269.8633" y2="303.9355" gradientTransform="matrix(0.9978 0.067 -0.067 0.9978 316.0417 -29.0505)">
					<stop  offset="0" style="stop-color:#F4F3F1"/>
					<stop  offset="1" style="stop-color:#FFB2BC"/>
				</linearGradient>
				<polygon fill="url(#SVGID_25_)" points="562.585,292.139 568.059,286.99 562.617,285.976 				"/>
				<g>
					
						<linearGradient id="SVGID_26_" gradientUnits="userSpaceOnUse" x1="267.1143" y1="293.123" x2="277.1055" y2="293.123" gradientTransform="matrix(0.9978 0.067 -0.067 0.9978 316.0417 -29.0505)">
						<stop  offset="0" style="stop-color:#F4F3F1"/>
						<stop  offset="1" style="stop-color:#FFB2BC"/>
					</linearGradient>
					<path fill="url(#SVGID_26_)" d="M573.025,276.072l-0.174,6.62c0,0-1.722,7.938-10.086,3.492l0.532-10.332L573.025,276.072z"/>
					
						<linearGradient id="SVGID_27_" gradientUnits="userSpaceOnUse" x1="-508.0225" y1="1167.4502" x2="-490.1831" y2="1167.4502" gradientTransform="matrix(0.82 0.5725 -0.5725 0.82 1643.1685 -399.2021)">
						<stop  offset="0" style="stop-color:#F4F3F1"/>
						<stop  offset="1" style="stop-color:#FFB2BC"/>
					</linearGradient>
					<path fill="url(#SVGID_27_)" d="M576.598,267.497l-4.875,10.805l-0.523,1.544c-5.953,4.143-11.758,2.199-12.679-0.522
						c-0.92-2.721,3.81-17.94,3.81-17.94L576.598,267.497z"/>
					<polygon fill="#FFB5BE" points="561.804,270.551 560.787,275.543 557.936,274.962 					"/>
					<path fill="#0A1123" d="M571.705,266.393c0,0,0.471,1.69-0.115,4.726c-0.524,2.71-0.708,4.437-0.732,5.537
						c-0.013,0.625,0.842,0.808,1.08,0.229l1.51-3.674l-0.481,7.768c3.532-3.362,5.078-5.629,7.605-9.814
						c1.463-2.422,2.341-5.983-0.439-7.827c-0.653-0.434-2.066-1.158-2.066-1.158s-0.183-0.391-0.279-0.551
						c-0.391-0.653-0.96-1.198-1.559-1.657c-2.726-2.091-3.881-2.095-7.205-2.433c-10.845-1.104-7.749,7.098-7.749,7.098
						l0.928-2.182C562.204,262.454,566.293,268.396,571.705,266.393z"/>
					
						<linearGradient id="SVGID_28_" gradientUnits="userSpaceOnUse" x1="-492.1382" y1="1165.5703" x2="-488.6992" y2="1165.5703" gradientTransform="matrix(0.82 0.5725 -0.5725 0.82 1643.1685 -399.2021)">
						<stop  offset="0" style="stop-color:#F4F3F1"/>
						<stop  offset="1" style="stop-color:#FFB2BC"/>
					</linearGradient>
					<path fill="url(#SVGID_28_)" d="M575.966,273.738c0.629,1.657-1.047,4.391-4.243,4.563l1.725-5.091
						C573.982,272.584,575.552,272.648,575.966,273.738z"/>
				</g>
				<g>
					<g>
						<g>
							<g>
								
									<linearGradient id="SVGID_29_" gradientUnits="userSpaceOnUse" x1="8480.0723" y1="302.7012" x2="8480.0723" y2="295.5605" gradientTransform="matrix(-0.9978 -0.067 -0.067 0.9978 9043.0938 557.8414)">
									<stop  offset="0" style="stop-color:#E7E6FF"/>
									<stop  offset="0.3393" style="stop-color:#C9D2F8"/>
									<stop  offset="0.7637" style="stop-color:#AABDF1"/>
									<stop  offset="1" style="stop-color:#9EB5EE"/>
								</linearGradient>
								<path fill="url(#SVGID_29_)" d="M562.609,291.794l-2.32-2.085l2.551-5.057C562.84,284.652,562.734,291.682,562.609,291.794z
									"/>
								
									<linearGradient id="SVGID_30_" gradientUnits="userSpaceOnUse" x1="8482.2559" y1="301.5693" x2="8482.2559" y2="295.0889" gradientTransform="matrix(-0.9978 -0.067 -0.067 0.9978 9043.0938 557.8414)">
									<stop  offset="0" style="stop-color:#F9FBFC"/>
									<stop  offset="0.9973" style="stop-color:#CDDBFF"/>
								</linearGradient>
								<polygon fill="url(#SVGID_30_)" points="562.84,284.652 560.289,289.709 556.148,290.226 562.872,284.182 								"/>
							</g>
							
								<linearGradient id="SVGID_31_" gradientUnits="userSpaceOnUse" x1="8472.2031" y1="303.749" x2="8472.2031" y2="291.8799" gradientTransform="matrix(-0.9978 -0.067 -0.067 0.9978 9043.0938 557.8414)">
								<stop  offset="0" style="stop-color:#F9FBFC"/>
								<stop  offset="0.3069" style="stop-color:#F0F5FD"/>
								<stop  offset="0.8031" style="stop-color:#D8E3FE"/>
								<stop  offset="0.9973" style="stop-color:#CDDBFF"/>
							</linearGradient>
							<polygon fill="url(#SVGID_31_)" points="575.252,283.459 568,293.206 564.026,289.359 573.247,281.662 							"/>
						</g>
						
							<linearGradient id="SVGID_32_" gradientUnits="userSpaceOnUse" x1="8477.5762" y1="302.7012" x2="8477.5762" y2="300.1777" gradientTransform="matrix(-0.9978 -0.067 -0.067 0.9978 9043.0938 557.8414)">
							<stop  offset="0" style="stop-color:#E7E6FF"/>
							<stop  offset="0.3393" style="stop-color:#C9D2F8"/>
							<stop  offset="0.7637" style="stop-color:#AABDF1"/>
							<stop  offset="1" style="stop-color:#9EB5EE"/>
						</linearGradient>
						<polygon fill="url(#SVGID_32_)" points="564.026,289.359 562.609,291.794 565.264,290.505 						"/>
					</g>
				</g>
				<g>
					<g>
						<g>
							<g>
								<path fill="#702232" d="M561.099,324.115c0.569,0.711,10.22-7.502,10.98-8.142c3.338-2.807,21.713-23.577,9.411-25.365
									c-1.891-0.274-3.577,0.497-4.852,1.463c-5.739,4.348-19.882,21.676-19.882,21.676S561.098,324.114,561.099,324.115z"/>
							</g>
							
								<linearGradient id="SVGID_33_" gradientUnits="userSpaceOnUse" x1="261.4785" y1="330.3945" x2="271.5991" y2="330.3945" gradientTransform="matrix(0.9978 0.067 -0.067 0.9978 316.0417 -29.0505)">
								<stop  offset="0" style="stop-color:#F9FBFC"/>
								<stop  offset="0.3069" style="stop-color:#F0F5FD"/>
								<stop  offset="0.8031" style="stop-color:#D8E3FE"/>
								<stop  offset="0.9973" style="stop-color:#CDDBFF"/>
							</linearGradient>
							<polygon fill="url(#SVGID_33_)" points="559.482,323.812 555.649,321.5 554.922,320.725 554.694,319.842 555.431,316.16 
								556.169,312.517 561.597,313.422 564.997,317.477 564.676,322.245 561.275,324.28 							"/>
						</g>
					</g>
					<linearGradient id="SVGID_34_" gradientUnits="userSpaceOnUse" x1="543.5747" y1="298.5977" x2="538.7647" y2="317.3177">
						<stop  offset="0" style="stop-color:#F4F3F1"/>
						<stop  offset="1" style="stop-color:#FFB2BC"/>
					</linearGradient>
					<path fill="url(#SVGID_34_)" d="M518.229,314.104c-0.15-0.757,0.483-1.193,0.53-1.927c0.034-0.537-0.345-0.898-0.642-1.29
						c-0.47-0.621,0.029-1.048,0.324-1.723c0.066-0.151-0.793-1.077-0.889-1.206c-0.31-0.419-0.75-0.754-0.986-1.227
						c-0.22-0.442,0.062-1.042,0.472-1.268c0.397-0.219,0.75-0.025,1.125,0.125c0.861,0.345,1.722,0.69,2.583,1.035
						c0.319,0.128,0.673,0.23,0.96,0.416c0.235,0.152,0.479,0.223,0.711-0.025c0.171-0.183,0.214-0.458,0.165-0.702
						c-0.049-0.245-0.181-0.466-0.324-0.67c-0.144-0.204-0.303-0.399-0.42-0.62c-0.309-0.582-0.284-1.326,0.062-1.887
						c0.09-0.146,0.21-0.286,0.375-0.331c0.227-0.063,0.47,0.083,0.594,0.282c0.165,0.264,0.177,0.608,0.276,0.899
						c0.202,0.589,0.535,1.126,0.923,1.609l1.581,1.506l2.48,2.361l2.897,1.725c0,0,26.473,1.271,29.462,3.714
						c1.27,1.038,3.127,2.847,2.813,4.613c-1.359,7.626-20.112,0.879-21.476,0.353c-1.233-0.477-10.756-2.959-12.11-3.104
						c0,0-10.313-1.101-10.329-1.104C518.724,315.544,518.341,314.672,518.229,314.104z"/>
				</g>
				
					<linearGradient id="SVGID_35_" gradientUnits="userSpaceOnUse" x1="262.46" y1="330.0234" x2="272.5605" y2="330.0234" gradientTransform="matrix(0.9978 0.067 -0.067 0.9978 316.0417 -29.0505)">
					<stop  offset="0" style="stop-color:#F9FBFC"/>
					<stop  offset="0.3069" style="stop-color:#F0F5FD"/>
					<stop  offset="0.8031" style="stop-color:#D8E3FE"/>
					<stop  offset="0.9973" style="stop-color:#CDDBFF"/>
				</linearGradient>
				<path fill="url(#SVGID_35_)" d="M561.275,324.28c0,0-0.383-9.288-5.105-11.764l0.717-0.695c0,0,4.268,0.216,5.191,1.133
					c0.851,0.845,4.497,5.785,3.4,10.111c-0.083,0.331-3.666,1.089-3.666,1.089L561.275,324.28z"/>
			</g>
			<g>
				<polygon fill="#1A1A1D" points="270.011,335.404 260.695,322.402 264.854,319.422 270.127,326.781 283.927,308.576 
					288.004,311.667 				"/>
			</g>
			<g>
				<polygon fill="#1A1A1D" points="323.913,358.826 314.597,345.824 318.756,342.843 324.03,350.202 337.83,331.997 
					341.907,335.089 				"/>
			</g>
			<g>
				<polygon fill="#1A1A1D" points="272.805,409.262 263.489,396.259 267.648,393.278 272.921,400.638 286.721,382.433 
					290.798,385.523 				"/>
			</g>
		</g>
		<g>
			<path fill-rule="evenodd" clip-rule="evenodd" fill="#FFFFFF" d="M606.386,141.873c0,0-1.809-0.176-3.299-1.739
				c-1.247-1.306-1.685-2.601-1.839-3.35c-0.154,0.75-0.592,2.044-1.838,3.35c-1.491,1.563-3.3,1.739-3.3,1.739l0.045,0.049
				l-0.045,0.049c0,0,1.809,0.176,3.3,1.738c1.246,1.306,1.685,2.601,1.838,3.351c0.154-0.75,0.592-2.044,1.839-3.351
				c1.491-1.562,3.299-1.738,3.299-1.738l-0.044-0.049L606.386,141.873z"/>
			<path fill-rule="evenodd" clip-rule="evenodd" fill="#FFFFFF" d="M165.199,199.439c0,0-1.808-0.177-3.299-1.739
				c-1.247-1.306-1.685-2.601-1.839-3.351c-0.154,0.75-0.592,2.044-1.839,3.351c-1.491,1.562-3.299,1.739-3.299,1.739l0.044,0.049
				l-0.044,0.048c0,0,1.808,0.177,3.299,1.739c1.247,1.306,1.685,2.601,1.839,3.35c0.154-0.75,0.592-2.044,1.839-3.35
				c1.491-1.562,3.299-1.739,3.299-1.739l-0.044-0.048L165.199,199.439z"/>
			<path fill-rule="evenodd" clip-rule="evenodd" fill="#FFFFFF" d="M297.998,111.8c0,0-1.809-0.177-3.299-1.739
				c-1.247-1.306-1.685-2.601-1.838-3.351c-0.154,0.75-0.592,2.045-1.839,3.351c-1.491,1.562-3.3,1.739-3.3,1.739l0.045,0.049
				l-0.045,0.049c0,0,1.809,0.177,3.3,1.739c1.247,1.306,1.685,2.601,1.839,3.351c0.153-0.75,0.592-2.045,1.838-3.351
				c1.491-1.562,3.299-1.739,3.299-1.739l-0.044-0.049L297.998,111.8z"/>
			<path fill-rule="evenodd" clip-rule="evenodd" fill="#FFFFFF" d="M382.72,157.246c0,0-1.808-0.177-3.299-1.739
				c-1.247-1.306-1.685-2.601-1.839-3.351c-0.154,0.75-0.592,2.044-1.839,3.351c-1.491,1.562-3.299,1.739-3.299,1.739l0.044,0.049
				l-0.044,0.049c0,0,1.808,0.177,3.299,1.739c1.247,1.306,1.685,2.601,1.839,3.35c0.154-0.75,0.592-2.044,1.839-3.35
				c1.491-1.562,3.299-1.739,3.299-1.739l-0.044-0.049L382.72,157.246z"/>
			<path fill-rule="evenodd" clip-rule="evenodd" fill="#FFFFFF" d="M661.721,378.008c0,0-1.809-0.177-3.299-1.739
				c-1.247-1.306-1.685-2.601-1.839-3.351c-0.154,0.75-0.592,2.045-1.839,3.351c-1.491,1.563-3.299,1.739-3.299,1.739l0.044,0.049
				l-0.044,0.049c0,0,1.808,0.177,3.299,1.738c1.247,1.306,1.685,2.601,1.839,3.351c0.154-0.75,0.592-2.045,1.839-3.351
				c1.491-1.562,3.299-1.738,3.299-1.738l-0.045-0.049L661.721,378.008z"/>
			<path fill-rule="evenodd" clip-rule="evenodd" fill="#FFFFFF" d="M129.466,307.884c0,0-3.18-0.311-5.803-3.058
				c-2.193-2.298-2.963-4.575-3.234-5.894c-0.271,1.318-1.041,3.596-3.234,5.894c-2.623,2.747-5.803,3.058-5.803,3.058l0.078,0.086
				l-0.078,0.086c0,0,3.18,0.312,5.803,3.059c2.193,2.297,2.963,4.574,3.234,5.894c0.271-1.319,1.042-3.597,3.234-5.894
				c2.623-2.747,5.803-3.059,5.803-3.059l-0.078-0.086L129.466,307.884z"/>
		</g>
	</g>
</g>
<g id="DESIGNED_BY_FREEPIK">
</g>
</svg>
